<!DOCTYPE svg PUBLIC "-//W3C//DTD SVG 1.1//EN" "http://www.w3.org/Graphics/SVG/1.1/DTD/svg11.dtd">
<!-- Uploaded to: SVG Repo, www.svgrepo.com, Transformed by: SVG Repo Mixer Tools -->
<svg fill="#ffffff" version="1.1" id="Layer_1" xmlns="http://www.w3.org/2000/svg" xmlns:xlink="http://www.w3.org/1999/xlink" viewBox="0 0 512 512" xml:space="preserve" width="800px" height="800px" stroke="#ffffff">
<g id="SVGRepo_bgCarrier" stroke-width="0"/>
<g id="SVGRepo_tracerCarrier" stroke-linecap="round" stroke-linejoin="round"/>
<g id="SVGRepo_iconCarrier"> <g> <g> <rect x="80" y="368" width="352" height="64"/> </g> </g> <g> <g> <polygon points="0,17.016 0,494.976 56,439.028 56,72.964 "/> </g> </g> <g> <g> <polygon points="439.084,456 73.02,456 16.956,512 495.144,512 "/> </g> </g> <g> <g> <polygon points="456,72.964 456,439.028 512,494.976 512,17.016 "/> </g> </g> <g> <g> <polygon points="16.956,0 73.02,56 439.084,56 495.144,0 "/> </g> </g> <g> <g> <rect x="80" y="80" width="352" height="64"/> </g> </g> <g> <g> <path d="M256.052,164.056c-50.784,0-91.944,41.16-91.944,91.94c0,50.776,41.16,91.94,91.944,91.94s91.944-41.164,91.944-91.94 C347.996,205.216,306.836,164.056,256.052,164.056z M307.844,268H268v39.876c0,6.58-5.42,11.928-12,11.928 c-6.58,0-12-5.352-12-11.928V268h-39.912c-6.584,0-11.932-5.42-11.932-12c0-6.58,5.352-12,11.932-12H244v-39.884 c0-6.58,5.42-11.928,12-11.928s12,5.352,12,11.928V244h39.844c6.58,0,11.932,5.42,11.932,12S314.42,268,307.844,268z"/> </g> </g> <g> <g> <path d="M367.328,268c-3.312,32-19.296,60-42.636,76H432v-76H367.328z"/> </g> </g> <g> <g> <path d="M144.772,268H80v76h107.412C164.072,328,148.084,300,144.772,268z"/> </g> </g> <g> <g> <path d="M324.692,168c23.34,16,39.324,44,42.636,76H432v-76H324.692z"/> </g> </g> <g> <g> <path d="M80,168v76h64.772c3.312-32,19.3-60,42.64-76H80z"/> </g> </g> </g>
</svg>