<!DOCTYPE svg PUBLIC "-//W3C//DTD SVG 1.1//EN" "http://www.w3.org/Graphics/SVG/1.1/DTD/svg11.dtd">
<!-- Uploaded to: SVG Repo, www.svgrepo.com, Transformed by: SVG Repo Mixer Tools -->
<svg fill="#ffffff" height="800px" width="800px" version="1.1" id="Layer_1" xmlns="http://www.w3.org/2000/svg" xmlns:xlink="http://www.w3.org/1999/xlink" viewBox="0 0 507.996 507.996" xml:space="preserve" stroke="#ffffff">
<g id="SVGRepo_bgCarrier" stroke-width="0"/>
<g id="SVGRepo_tracerCarrier" stroke-linecap="round" stroke-linejoin="round"/>
<g id="SVGRepo_iconCarrier"> <g> <g> <path d="M496.22,150.18H338.892L297.648,26.996c-2.2-6.412-8.184-10.444-14.984-10.444c-1.712,0-3.444,0.416-5.1,0.984 c-3.968,1.36-7.22,4.26-9.072,8.056c-1.86,3.788-2.156,7.572-0.812,11.548l37.86,113.04H204.444l37.832-112.988 c1.372-4,1.092-8.016-0.784-11.812c-1.856-3.788-5.084-6.488-9.084-7.844c-1.644-0.572-3.356-0.788-5.088-0.788 c-6.776,0-12.8,3.796-14.988,10.236l-41.24,123.196H13.764C7.228,150.18,0,156.592,0,163.136v15.812 c0,5.268,4.412,9.684,9.16,11.236l17.716,179.784c1.376,19.42,18.828,36.068,38.292,36.068h75.24 c-0.048-3.708-0.652-3.372-0.652-4.64c0-28.452,12.272-55.328,27.1-75.38V234.32c0-6.556,4.584-11.872,11.12-11.872 c6.56,0,11.14,5.316,11.14,11.872v70.728c14.828-9.968,33.364-16.508,51.9-18.428v-52.3c0-6.556,4.584-11.872,11.124-11.872 c6.56,0,11.116,5.316,11.116,11.872v52.34c22.244,1.976,37.108,8.56,51.936,18.592V234.32c0-6.556,6.424-11.872,12.968-11.872 c6.536,0,12.96,5.316,12.96,11.872v92.048c14.828,20.008,27.796,46.748,27.796,75.028c0,1.268,0.4,0.932,0.356,4.64h75.512 c19.484,0,36.46-16.648,37.836-35.968L499.808,190.6c4.764-1.548,8.188-6.384,8.188-11.652v-15.812 C508,156.588,502.768,150.18,496.22,150.18z M114.956,356.904c0,6.548-4.584,11.872-11.14,11.872 c-6.54,0-11.12-5.324-11.12-11.872V234.32c0-6.556,4.584-11.872,11.12-11.872c6.56,0,11.14,5.316,11.14,11.872V356.904z M415.304,356.904c0,6.548-4.584,11.872-11.14,11.872c-6.548,0-11.1-5.324-11.1-11.872V234.32c0-6.556,4.556-11.872,11.1-11.872 c6.56,0,11.14,5.316,11.14,11.872V356.904z"/> </g> </g> <g> <g> <path d="M254.272,309.66c-50.216,0-90.912,40.692-90.912,90.892c0,50.208,40.696,90.892,90.912,90.892 c50.196,0,90.888-40.684,90.888-90.892C345.16,350.352,304.468,309.66,254.272,309.66z M305.464,413.448h-42.208v38.392 c0,6.5-4.612,11.8-11.116,11.8c-6.492,0-11.124-5.3-11.124-11.8v-38.392h-38.112c-6.512,0-11.788-6.472-11.788-12.972 c0-6.508,5.276-12.976,11.788-12.976h38.112v-38.236c0-6.508,4.632-11.792,11.124-11.792c6.504,0,11.116,5.284,11.116,11.792 V387.5h42.208c6.512,0,11.788,6.468,11.788,12.976C317.252,406.976,311.976,413.448,305.464,413.448z"/> </g> </g> </g>
</svg>