<!DOCTYPE svg PUBLIC "-//W3C//DTD SVG 1.1//EN" "http://www.w3.org/Graphics/SVG/1.1/DTD/svg11.dtd">
<!-- Uploaded to: SVG Repo, www.svgrepo.com, Transformed by: SVG Repo Mixer Tools -->
<svg fill="#ffffff" height="800px" width="800px" version="1.1" id="Layer_1" xmlns="http://www.w3.org/2000/svg" xmlns:xlink="http://www.w3.org/1999/xlink" viewBox="0 0 512 512" xml:space="preserve" stroke="#ffffff">
<g id="SVGRepo_bgCarrier" stroke-width="0"/>
<g id="SVGRepo_tracerCarrier" stroke-linecap="round" stroke-linejoin="round"/>
<g id="SVGRepo_iconCarrier"> <g> <g> <path d="M438.98,325.458l-74.776-120.056l-24.328-39.124c-11.08-17.732-29.192-17.82-40.244-0.072L201.08,325.47 c-11.048,17.756-2.844,33.144,18.224,33.144H420.82C441.896,358.614,450.072,343.186,438.98,325.458z M320.064,332.646 c-8.776,0-15.916-7.14-15.916-15.92c0-8.78,7.136-15.916,15.916-15.916s15.92,7.136,15.92,15.916S328.844,332.646,320.064,332.646 z M336,276.25c0,9.124-7.164,16.552-16.004,16.552c-8.84,0-15.996-7.428-15.996-16.552v-58.74c0-9.128,7.156-16.56,15.996-16.56 c8.84,0,16.004,7.432,16.004,16.56V276.25z"/> </g> </g> <g> <g> <path d="M108,94.614H88c-2.212,0-4,1.792-4,4s1.788,4,4,4h20c2.212,0,4-1.792,4-4S110.212,94.614,108,94.614z"/> </g> </g> <g> <g> <path d="M500,94.614H111.036L91.44,49.586C82.052,28.75,66.82,18.614,44.884,18.614H4.052C1.844,18.614,0,18.706,0,20.918v19.996 c0,2.208,1.844,5.7,4.052,5.7H44.3c12.492,0,14.72,3.768,18.752,12.152l15.72,35.832C74.788,96.55,72,100.182,72,104.91v3.996 c0,6.616,5.424,13.708,12.044,13.708H500c6.616,0,12-7.092,12-13.708v-3.996C512,98.29,506.616,94.614,500,94.614z"/> </g> </g> <g> <g> <path d="M464.252,397.866c-20.8,0-38.492,12.748-45.02,32.748H217.056c-2.776-8-7.564-15.62-13.772-21.012l12.18-28.664 c-10.36-0.608-19.524-3.772-26.72-8.928l-11.052,25.584c-1.86-0.22-3.74-0.416-5.66-0.416c-26.324,0-47.744,21.404-47.744,47.728 c0,26.324,21.416,48.48,47.744,48.48c22.088,0,40.664-14.764,46.092-34.764h200.04c5.424,20,24.004,34.748,46.088,34.748 c26.328,0,47.748-21.42,47.748-47.748C512,419.294,490.584,397.866,464.252,397.866z"/> </g> </g> <g> <g> <path d="M500,113.906c-2.204,0-3.988,1.788-3.996,3.992l-398.676-0.976l-0.7-1.608c-0.88-2.024-3.232-2.952-5.26-2.08 c-2.024,0.884-2.956,3.244-2.08,5.264l85.66,197.312c0.512,1.18,1.136,2.32,1.856,3.424c1.12-2.484,2.276-4.968,3.804-7.42 L216,254.782v-99.956c0-5.476,4.524-9.92,10.004-9.92c5.472,0,9.996,4.444,9.996,9.92v68.072l36-57.856v-10.216 c0-5.476,4.452-9.92,9.932-9.92c1.152,0,2.248,0.236,3.276,0.592c9.348-10.68,21.52-16.732,34.552-16.732 c15.956,0,30.62,8.952,40.372,24.56L384,191.622v-36.796c0-5.476,4.524-9.92,10-9.92s10,4.444,10,9.92v68.524l36,57.82V154.826 c0-5.476,4.52-9.92,10-9.92c5.476,0,10,4.444,10,9.92v136.14c0,4.708-3.284,8.628-7.68,9.648l7.008,12.06 c4.336,6.936,6.944,13.936,8,21.936h16.676c11.028,0,19.996-10.7,19.996-21.724v-194.98C504,115.694,502.212,113.906,500,113.906z M180,198.974c0,5.48-4.524,9.92-10,9.92s-10-4.44-10-9.92v-44.148c0-5.476,4.524-9.92,10-9.92s10,4.444,10,9.92V198.974z"/> </g> </g> </g>
</svg>